<?xml version="1.0" standalone="no"?>
<!DOCTYPE svg PUBLIC "-//W3C//DTD SVG 20010904//EN"
 "http://www.w3.org/TR/2001/REC-SVG-20010904/DTD/svg10.dtd">
<svg version="1.0" xmlns="http://www.w3.org/2000/svg"
 width="298.000000pt" height="219.000000pt" viewBox="0 0 298.000000 219.000000"
 preserveAspectRatio="xMidYMid meet">
<metadata>
Created by potrace 1.10, written by Peter Selinger 2001-2011
</metadata>
<g transform="translate(0.000000,219.000000) scale(0.100000,-0.100000)"
fill="#000000" stroke="none">
<path d="M542 1227 l-132 -132 132 -132 133 -132 133 131 133 132 -133 133
-133 133 -133 -133z m152 96 c3 -4 -35 -49 -86 -100 l-93 -93 75 -75 c52 -53
71 -78 62 -83 -8 -6 -40 20 -95 74 l-82 83 95 100 c92 96 109 109 124 94z
m216 -230 c0 -28 -28 -9 -113 75 l-88 87 -71 -73 c-51 -54 -73 -71 -81 -63 -8
8 11 34 73 96 l85 85 97 -97 c54 -54 98 -103 98 -110z m-113 45 l83 -83 -97
-97 c-92 -93 -123 -114 -123 -86 0 7 39 52 87 100 l88 88 -73 73 c-62 63 -77
87 -53 87 3 0 43 -37 88 -82z m-97 33 c0 -4 -14 -20 -30 -36 -23 -22 -33 -26
-42 -17 -9 9 -5 19 16 41 25 26 56 32 56 12z m45 -51 c23 -24 26 -33 17 -39
-15 -9 -76 45 -66 60 9 15 19 11 49 -21z m-56 -36 c-9 -11 -15 -12 -25 -3 -11
9 -12 15 -3 25 9 11 15 12 25 3 11 -9 12 -15 3 -25z m-137 -61 l88 -88 75 75
c54 53 76 70 80 59 4 -10 -23 -44 -77 -97 l-82 -83 -99 100 c-86 86 -109 121
-79 121 4 0 46 -39 94 -87z m81 61 c21 -19 26 -29 18 -37 -8 -8 -19 -3 -41 18
-16 15 -27 32 -24 37 8 13 17 10 47 -18z m97 -22 c0 -4 -12 -20 -26 -36 -19
-21 -28 -26 -37 -17 -8 8 -4 19 18 41 25 26 46 32 45 12z"/>
<path d="M1048 1254 c-53 -28 -62 -138 -15 -182 30 -28 67 -36 116 -22 41 11
41 11 41 58 l0 47 -40 2 c-33 1 -40 -2 -40 -18 0 -12 7 -19 20 -19 13 0 20 -7
20 -20 0 -17 -7 -20 -39 -20 -49 0 -66 20 -66 77 0 35 5 49 24 64 30 25 63 21
76 -8 14 -33 35 -29 35 7 0 24 -6 33 -26 40 -35 14 -74 12 -106 -6z"/>
<path d="M2200 1255 c0 -8 7 -15 15 -15 12 0 15 -15 15 -74 0 -96 17 -121 84
-121 72 0 89 24 87 119 -1 62 1 76 14 76 8 0 15 7 15 15 0 11 -12 15 -45 15
-33 0 -45 -4 -45 -15 0 -8 5 -15 10 -15 7 0 10 -29 8 -77 -3 -77 -3 -78 -31
-81 -46 -5 -57 12 -57 89 0 55 3 69 15 69 8 0 15 7 15 15 0 11 -12 15 -50 15
-38 0 -50 -4 -50 -15z"/>
<path d="M1238 1193 c-57 -66 -6 -164 78 -149 25 5 34 12 32 23 -2 12 -14 17
-43 17 -29 1 -41 5 -43 19 -3 14 4 17 48 17 43 0 51 3 46 16 -3 9 -6 22 -6 29
0 41 -82 62 -112 28z m72 -17 c0 -2 3 -11 6 -20 5 -13 -1 -16 -25 -16 -29 0
-41 16 -24 33 7 8 43 10 43 3z"/>
<path d="M1370 1195 c0 -8 7 -15 15 -15 23 0 21 -96 -2 -109 -25 -14 -9 -25
37 -26 40 -1 50 11 29 32 -5 5 -9 30 -7 54 2 34 7 45 22 47 10 2 22 -2 27 -10
12 -18 11 -85 -1 -93 -23 -14 -8 -30 30 -30 26 -1 40 3 40 12 0 7 -4 13 -10
13 -5 0 -10 23 -10 51 0 28 -5 59 -10 70 -12 22 -59 26 -78 7 -9 -9 -12 -9
-12 0 0 7 -14 12 -35 12 -24 0 -35 -5 -35 -15z"/>
<path d="M1600 1190 c-14 -14 -20 -33 -20 -63 0 -50 19 -73 67 -83 70 -14 114
93 60 144 -30 28 -80 29 -107 2z m81 -34 c17 -37 4 -76 -25 -76 -13 0 -27 7
-30 16 -24 61 29 118 55 60z"/>
<path d="M1750 1195 c0 -8 5 -15 10 -15 6 0 10 -25 10 -55 0 -30 -4 -55 -10
-55 -5 0 -10 -6 -10 -13 0 -9 13 -13 40 -11 49 2 56 7 35 24 -19 16 -20 84 0
100 27 22 45 4 45 -44 0 -25 -4 -48 -10 -51 -24 -15 -8 -30 30 -30 26 0 40 4
40 12 0 7 -5 13 -11 13 -6 0 -9 21 -7 53 3 44 6 52 23 52 16 0 21 -8 23 -44 3
-40 2 -50 -9 -75 -2 -4 15 -9 39 -10 29 -2 42 2 42 11 0 7 -4 13 -10 13 -5 0
-10 20 -10 45 0 83 -34 115 -90 85 -13 -7 -21 -7 -25 0 -9 14 -58 13 -73 -2
-9 -9 -12 -9 -12 0 0 7 -13 12 -30 12 -20 0 -30 -5 -30 -15z"/>
<path d="M2066 1191 c-10 -11 -17 -36 -18 -62 0 -35 5 -47 26 -66 15 -13 35
-23 44 -23 69 1 86 43 17 44 -30 1 -40 5 -43 19 -3 16 2 18 44 16 55 -4 61 4
40 55 -14 33 -19 36 -54 36 -25 0 -45 -7 -56 -19z m74 -15 c0 -2 3 -11 6 -20
5 -13 -1 -16 -25 -16 -29 0 -41 16 -24 33 7 8 43 10 43 3z"/>
<path d="M2440 1200 c0 -6 7 -13 15 -16 17 -7 22 -114 5 -114 -5 0 -10 -6 -10
-13 0 -9 13 -13 40 -12 47 1 60 11 36 28 -13 9 -17 24 -14 52 2 32 7 40 28 45
30 7 41 40 13 40 -11 0 -24 -5 -31 -12 -9 -9 -12 -9 -12 0 0 7 -14 12 -35 12
-19 0 -35 -5 -35 -10z"/>
<path d="M1150 971 c0 -11 -3 -26 -6 -35 -3 -9 -1 -16 5 -16 6 0 11 14 11 30
0 17 5 30 11 30 6 0 9 -7 5 -15 -3 -8 -1 -15 4 -15 6 0 10 9 10 20 0 13 -7 20
-20 20 -13 0 -20 -7 -20 -19z"/>
<path d="M1209 958 c-5 -36 -3 -38 21 -38 14 0 32 6 39 13 11 10 14 10 18 0
11 -30 20 -10 10 22 -13 43 -22 44 -36 5 -14 -41 -39 -39 -43 3 l-3 32 -6 -37z"/>
<path d="M1314 955 c11 -34 26 -47 26 -22 0 6 3 23 6 37 5 20 4 22 -6 10 -9
-11 -13 -12 -17 -2 -11 28 -19 9 -9 -23z"/>
<path d="M1391 953 c1 -38 1 -38 9 -8 4 17 8 25 9 19 0 -5 8 -19 16 -30 13
-18 14 -16 14 21 -1 33 -2 36 -8 15 l-7 -25 -8 23 c-12 35 -26 26 -25 -15z"/>
<path d="M1464 976 c-10 -26 1 -51 24 -54 17 -3 22 2 22 17 0 12 -4 21 -10 21
-5 0 -7 -7 -4 -15 4 -9 0 -15 -10 -15 -26 0 -21 48 7 53 l22 4 -23 2 c-12 0
-25 -5 -28 -13z"/>
<path d="M1544 966 c-3 -14 -3 -30 1 -36 8 -13 67 -10 78 5 6 7 10 6 14 -2 11
-29 20 -10 10 22 -13 43 -23 44 -32 3 -6 -26 -9 -28 -17 -15 -5 9 -14 17 -20
17 -6 0 -5 -6 3 -16 12 -14 11 -16 -6 -13 -29 6 -31 37 -3 48 l23 10 -22 0
c-16 1 -24 -6 -29 -23z"/>
<path d="M1713 955 c3 -46 17 -46 17 0 0 19 -4 35 -9 35 -5 0 -9 -16 -8 -35z"/>
<path d="M1740 955 c0 -32 2 -35 28 -34 23 2 24 2 5 6 -27 5 -30 20 -5 26 16
4 16 5 0 6 -26 2 -22 19 5 24 19 4 18 4 -5 6 -26 1 -28 -2 -28 -34z"/>
<path d="M1800 975 c0 -9 7 -18 15 -21 20 -8 19 -21 -2 -27 -14 -4 -12 -5 5
-6 25 -1 31 26 7 35 -8 4 -15 11 -15 16 0 6 7 8 15 4 8 -3 15 -1 15 4 0 6 -9
10 -20 10 -11 0 -20 -7 -20 -15z"/>
<path d="M1876 960 c7 -39 11 -46 21 -37 3 4 -1 22 -10 40 l-17 32 6 -35z"/>
<path d="M1987 982 c6 -4 13 -21 16 -37 l4 -30 2 32 c0 17 7 34 14 36 6 3 -1
6 -18 6 -16 0 -25 -3 -18 -7z"/>
<path d="M2041 958 c0 -21 3 -38 9 -38 5 0 7 7 4 15 -4 9 0 15 10 15 9 0 16
-7 16 -15 0 -8 5 -15 10 -15 6 0 10 16 10 35 0 19 -4 35 -10 35 -5 0 -10 -7
-10 -15 0 -21 -28 -19 -33 3 -3 9 -5 0 -6 -20z"/>
<path d="M2134 976 c-10 -26 1 -51 24 -54 17 -3 22 2 22 17 0 12 -4 21 -10 21
-5 0 -7 -7 -3 -16 4 -12 2 -15 -8 -12 -21 7 -18 43 4 42 9 -1 17 2 17 7 0 15
-40 10 -46 -5z"/>
<path d="M2200 955 c0 -30 3 -35 23 -34 16 1 18 2 5 6 -10 2 -18 8 -18 13 0 5
8 11 18 13 16 4 16 5 0 6 -10 0 -18 5 -18 10 0 5 8 12 18 14 13 4 11 5 -5 6
-20 1 -23 -4 -23 -34z"/>
<path d="M2250 955 c0 -19 4 -35 9 -35 5 0 7 10 3 22 -3 14 -2 19 6 14 14 -8
15 -4 6 18 -11 28 -24 17 -24 -19z"/>
<path d="M2320 955 c0 -30 3 -35 23 -34 16 1 18 2 5 6 -10 2 -18 8 -18 13 0 5
8 11 18 13 16 4 16 5 0 6 -10 0 -18 5 -18 10 0 5 8 12 18 14 13 4 11 5 -5 6
-20 1 -23 -4 -23 -34z"/>
<path d="M2375 980 c-3 -5 3 -17 15 -27 l21 -18 -23 -7 c-21 -6 -21 -6 5 -7
30 -1 39 25 12 35 -8 4 -15 11 -15 16 0 6 7 8 15 4 8 -3 15 -1 15 4 0 13 -37
13 -45 0z"/>
</g>
</svg>
